# WaveFront *.obj file (generated by CINEMA 4D)

mtllib ./dengzi1.mtl

v 0.00000000000000 -2.98520459551484 0.00000000000000
v 0.00000000000000 0.51479540448516 0.00000000000000
v 3.00000000000000 -2.98520459551484 0.00000000000000
v 2.13300000000000 0.51479540448516 0.00000000000000
v 2.95442325903662 -2.98520459551484 0.52094453300079
v 2.10059493717504 0.51479540448516 0.37039156296356
v 2.81907786235773 -2.98520459551484 1.02606042997701
v 2.00436436013634 0.51479540448516 0.72952896571365
v 2.59807621135332 -2.98520459551484 1.50000000000000
v 1.84723218627221 0.51479540448516 1.06650000000000
v 2.29813332935693 -2.98520459551484 1.92836282905962
v 1.63397279717278 0.51479540448516 1.37106597146139
v 1.92836282905962 -2.98520459551484 2.29813332935693
v 1.37106597146139 0.51479540448516 1.63397279717278
v 1.50000000000000 -2.98520459551484 2.59807621135332
v 1.06650000000000 0.51479540448516 1.84723218627221
v 1.02606042997701 -2.98520459551484 2.81907786235772
v 0.72952896571365 0.51479540448516 2.00436436013634
v 0.52094453300079 -2.98520459551484 2.95442325903662
v 0.37039156296356 0.51479540448516 2.10059493717504
v 0.00000000000000 -2.98520459551484 3.00000000000000
v 0.00000000000000 0.51479540448516 2.13300000000000
v -0.52094453300079 -2.98520459551484 2.95442325903662
v -0.37039156296356 0.51479540448516 2.10059493717504
v -1.02606042997701 -2.98520459551484 2.81907786235773
v -0.72952896571365 0.51479540448516 2.00436436013634
v -1.50000000000000 -2.98520459551484 2.59807621135332
v -1.06650000000000 0.51479540448516 1.84723218627221
v -1.92836282905962 -2.98520459551484 2.29813332935693
v -1.37106597146139 0.51479540448516 1.63397279717278
v -2.29813332935693 -2.98520459551484 1.92836282905962
v -1.63397279717278 0.51479540448516 1.37106597146139
v -2.59807621135332 -2.98520459551484 1.50000000000000
v -1.84723218627221 0.51479540448516 1.06650000000000
v -2.81907786235772 -2.98520459551484 1.02606042997701
v -2.00436436013634 0.51479540448516 0.72952896571365
v -2.95442325903662 -2.98520459551484 0.52094453300079
v -2.10059493717504 0.51479540448516 0.37039156296356
v -3.00000000000000 -2.98520459551484 0.00000000000000
v -2.13300000000000 0.51479540448516 0.00000000000000
v -2.95442325903662 -2.98520459551484 -0.52094453300079
v -2.10059493717504 0.51479540448516 -0.37039156296356
v -2.81907786235773 -2.98520459551484 -1.02606042997701
v -2.00436436013634 0.51479540448516 -0.72952896571365
v -2.59807621135332 -2.98520459551484 -1.50000000000000
v -1.84723218627221 0.51479540448516 -1.06650000000000
v -2.29813332935694 -2.98520459551484 -1.92836282905962
v -1.63397279717278 0.51479540448516 -1.37106597146139
v -1.92836282905962 -2.98520459551484 -2.29813332935693
v -1.37106597146139 0.51479540448516 -1.63397279717278
v -1.50000000000000 -2.98520459551484 -2.59807621135332
v -1.06650000000000 0.51479540448516 -1.84723218627221
v -1.02606042997701 -2.98520459551484 -2.81907786235773
v -0.72952896571365 0.51479540448516 -2.00436436013634
v -0.52094453300079 -2.98520459551484 -2.95442325903662
v -0.37039156296356 0.51479540448516 -2.10059493717504
v -0.00000000000000 -2.98520459551484 -3.00000000000000
v -0.00000000000000 0.51479540448516 -2.13300000000000
v 0.52094453300079 -2.98520459551484 -2.95442325903662
v 0.37039156296356 0.51479540448516 -2.10059493717504
v 1.02606042997701 -2.98520459551484 -2.81907786235772
v 0.72952896571365 0.51479540448516 -2.00436436013634
v 1.50000000000000 -2.98520459551484 -2.59807621135332
v 1.06650000000000 0.51479540448516 -1.84723218627221
v 1.92836282905962 -2.98520459551484 -2.29813332935693
v 1.37106597146139 0.51479540448516 -1.63397279717278
v 2.29813332935693 -2.98520459551484 -1.92836282905962
v 1.63397279717278 0.51479540448516 -1.37106597146139
v 2.59807621135332 -2.98520459551484 -1.50000000000000
v 1.84723218627221 0.51479540448516 -1.06650000000000
v 2.81907786235773 -2.98520459551484 -1.02606042997701
v 2.00436436013634 0.51479540448516 -0.72952896571365
v 2.95442325903662 -2.98520459551484 -0.52094453300079
v 2.10059493717504 0.51479540448516 -0.37039156296356
# 74 vertices

vn 0.00000000000000 -1.00000000000000 0.00000000000000
vn 0.00000000000000 0.00000000000000 0.00000000000000
vn 0.97066229139580 0.24044690903035 -0.00000000373870
vn 0.95591575324448 0.24044692621254 0.16855369581820
vn 0.00000000000000 1.00000000000000 0.00000000000000
vn 0.91212416982896 0.24044692855782 0.33198610416845
vn 0.84061822617846 0.24044690480839 0.48533110737376
vn 0.74357051101621 0.24044689242476 0.62392963310807
vn 0.62392965852529 0.24044691712108 0.74357048170263
vn 0.48533112320061 0.24044695748919 0.84061820197223
vn 0.33198613068611 0.24044692617884 0.91212416080444
vn 0.16855371029602 0.24044692560862 0.95591575084356
vn 0.00000000000000 0.24044690903035 0.97066229139580
vn -0.16855370662973 0.24044691183318 0.95591575495504
vn -0.33198611263708 0.24044691310651 0.91212417081978
vn -0.48533115119984 0.24044691189240 0.84061819884918
vn -0.62392966299629 0.24044688904177 0.74357048703097
vn -0.74357048170263 0.24044691712108 0.62392965852529
vn -0.84061820197223 0.24044695748919 0.48533112320061
vn -0.91212416080444 0.24044692617884 0.33198613068611
vn -0.95591575084356 0.24044692560862 0.16855371029602
vn -0.97066229139580 0.24044690903035 0.00000000373870
vn -0.95591575324448 0.24044692621254 -0.16855369581820
vn -0.91212416982896 0.24044692855782 -0.33198610416845
vn -0.84061822617846 0.24044690480839 -0.48533110737376
vn -0.74357051101621 0.24044689242476 -0.62392963310807
vn -0.62392965852529 0.24044691712108 -0.74357048170263
vn -0.48533112320061 0.24044695748919 -0.84061820197223
vn -0.33198613068611 0.24044692617884 -0.91212416080444
vn -0.16855371029602 0.24044692560862 -0.95591575084356
vn 0.00000000000000 0.24044690903035 -0.97066229139580
vn 0.16855370662973 0.24044691183318 -0.95591575495504
vn 0.33198611263708 0.24044691310651 -0.91212417081978
vn 0.48533115119984 0.24044691189240 -0.84061819884918
vn 0.62392966299629 0.24044688904177 -0.74357048703097
vn 0.74357048170263 0.24044691712108 -0.62392965852529
vn 0.84061820197223 0.24044695748919 -0.48533112320061
vn 0.91212416080444 0.24044692617884 -0.33198613068611
vn 0.95591575084356 0.24044692560862 -0.16855371029602
# 39 normals

o d_yuanzhu
usemtl lanse1
f 1//1 3//1 5//1
f 3//3 4//3 6//4 5//4
f 4//5 2//5 6//5
f 1//1 5//1 7//1
f 5//4 6//4 8//6 7//6
f 6//5 2//5 8//5
f 1//1 7//1 9//1
f 7//6 8//6 10//7 9//7
f 8//5 2//5 10//5
f 1//1 9//1 11//1
f 9//7 10//7 12//8 11//8
f 10//5 2//5 12//5
f 1//1 11//1 13//1
f 11//8 12//8 14//9 13//9
f 12//5 2//5 14//5
f 1//1 13//1 15//1
f 13//9 14//9 16//10 15//10
f 14//5 2//5 16//5
f 1//1 15//1 17//1
f 15//10 16//10 18//11 17//11
f 16//5 2//5 18//5
f 1//1 17//1 19//1
f 17//11 18//11 20//12 19//12
f 18//5 2//5 20//5
f 1//1 19//1 21//1
f 19//12 20//12 22//13 21//13
f 20//5 2//5 22//5
f 1//1 21//1 23//1
f 21//13 22//13 24//14 23//14
f 22//5 2//5 24//5
f 1//1 23//1 25//1
f 23//14 24//14 26//15 25//15
f 24//5 2//5 26//5
f 1//1 25//1 27//1
f 25//15 26//15 28//16 27//16
f 26//5 2//5 28//5
f 1//1 27//1 29//1
f 27//16 28//16 30//17 29//17
f 28//5 2//5 30//5
f 1//1 29//1 31//1
f 29//17 30//17 32//18 31//18
f 30//5 2//5 32//5
f 1//1 31//1 33//1
f 31//18 32//18 34//19 33//19
f 32//5 2//5 34//5
f 1//1 33//1 35//1
f 33//19 34//19 36//20 35//20
f 34//5 2//5 36//5
f 1//1 35//1 37//1
f 35//20 36//20 38//21 37//21
f 36//5 2//5 38//5
f 1//1 37//1 39//1
f 37//21 38//21 40//22 39//22
f 38//5 2//5 40//5
f 1//1 39//1 41//1
f 39//22 40//22 42//23 41//23
f 40//5 2//5 42//5
f 1//1 41//1 43//1
f 41//23 42//23 44//24 43//24
f 42//5 2//5 44//5
f 1//1 43//1 45//1
f 43//24 44//24 46//25 45//25
f 44//5 2//5 46//5
f 1//1 45//1 47//1
f 45//25 46//25 48//26 47//26
f 46//5 2//5 48//5
f 1//1 47//1 49//1
f 47//26 48//26 50//27 49//27
f 48//5 2//5 50//5
f 1//1 49//1 51//1
f 49//27 50//27 52//28 51//28
f 50//5 2//5 52//5
f 1//1 51//1 53//1
f 51//28 52//28 54//29 53//29
f 52//5 2//5 54//5
f 1//1 53//1 55//1
f 53//29 54//29 56//30 55//30
f 54//5 2//5 56//5
f 1//1 55//1 57//1
f 55//30 56//30 58//31 57//31
f 56//5 2//5 58//5
f 1//1 57//1 59//1
f 57//31 58//31 60//32 59//32
f 58//5 2//5 60//5
f 1//1 59//1 61//1
f 59//32 60//32 62//33 61//33
f 60//5 2//5 62//5
f 1//1 61//1 63//1
f 61//33 62//33 64//34 63//34
f 62//5 2//5 64//5
f 1//1 63//1 65//1
f 63//34 64//34 66//35 65//35
f 64//5 2//5 66//5
f 1//1 65//1 67//1
f 65//35 66//35 68//36 67//36
f 66//5 2//5 68//5
f 1//1 67//1 69//1
f 67//36 68//36 70//37 69//37
f 68//5 2//5 70//5
f 1//1 69//1 71//1
f 69//37 70//37 72//38 71//38
f 70//5 2//5 72//5
f 1//1 71//1 73//1
f 71//38 72//38 74//39 73//39
f 72//5 2//5 74//5
f 1//1 73//1 3//1
f 73//39 74//39 4//3 3//3
f 74//5 2//5 4//5

v 0.00000000000000 0.48520459551484 0.00000000000000
v 0.00000000000000 1.98520459551484 0.00000000000000
v 5.00000000000000 0.48520459551484 0.00000000000000
v 5.00000000000000 1.98520459551484 0.00000000000000
v 4.92403876506104 0.48520459551484 0.86824088833465
v 4.92403876506104 1.98520459551484 0.86824088833465
v 4.69846310392954 0.48520459551484 1.71010071662834
v 4.69846310392954 1.98520459551484 1.71010071662834
v 4.33012701892219 0.48520459551484 2.50000000000000
v 4.33012701892219 1.98520459551484 2.50000000000000
v 3.83022221559489 0.48520459551484 3.21393804843270
v 3.83022221559489 1.98520459551484 3.21393804843270
v 3.21393804843270 0.48520459551484 3.83022221559489
v 3.21393804843270 1.98520459551484 3.83022221559489
v 2.50000000000000 0.48520459551484 4.33012701892219
v 2.50000000000000 1.98520459551484 4.33012701892219
v 1.71010071662834 0.48520459551484 4.69846310392954
v 1.71010071662834 1.98520459551484 4.69846310392954
v 0.86824088833465 0.48520459551484 4.92403876506104
v 0.86824088833465 1.98520459551484 4.92403876506104
v 0.00000000000000 0.48520459551484 5.00000000000000
v 0.00000000000000 1.98520459551484 5.00000000000000
v -0.86824088833465 0.48520459551484 4.92403876506104
v -0.86824088833465 1.98520459551484 4.92403876506104
v -1.71010071662834 0.48520459551484 4.69846310392954
v -1.71010071662834 1.98520459551484 4.69846310392954
v -2.50000000000000 0.48520459551484 4.33012701892219
v -2.50000000000000 1.98520459551484 4.33012701892219
v -3.21393804843270 0.48520459551484 3.83022221559489
v -3.21393804843270 1.98520459551484 3.83022221559489
v -3.83022221559489 0.48520459551484 3.21393804843270
v -3.83022221559489 1.98520459551484 3.21393804843270
v -4.33012701892219 0.48520459551484 2.50000000000000
v -4.33012701892219 1.98520459551484 2.50000000000000
v -4.69846310392954 0.48520459551484 1.71010071662834
v -4.69846310392954 1.98520459551484 1.71010071662834
v -4.92403876506104 0.48520459551484 0.86824088833465
v -4.92403876506104 1.98520459551484 0.86824088833465
v -5.00000000000000 0.48520459551484 0.00000000000000
v -5.00000000000000 1.98520459551484 0.00000000000000
v -4.92403876506104 0.48520459551484 -0.86824088833465
v -4.92403876506104 1.98520459551484 -0.86824088833465
v -4.69846310392954 0.48520459551484 -1.71010071662834
v -4.69846310392954 1.98520459551484 -1.71010071662834
v -4.33012701892219 0.48520459551484 -2.50000000000000
v -4.33012701892219 1.98520459551484 -2.50000000000000
v -3.83022221559489 0.48520459551484 -3.21393804843269
v -3.83022221559489 1.98520459551484 -3.21393804843269
v -3.21393804843270 0.48520459551484 -3.83022221559489
v -3.21393804843270 1.98520459551484 -3.83022221559489
v -2.50000000000000 0.48520459551484 -4.33012701892219
v -2.50000000000000 1.98520459551484 -4.33012701892219
v -1.71010071662834 0.48520459551484 -4.69846310392954
v -1.71010071662834 1.98520459551484 -4.69846310392954
v -0.86824088833465 0.48520459551484 -4.92403876506104
v -0.86824088833465 1.98520459551484 -4.92403876506104
v -0.00000000000000 0.48520459551484 -5.00000000000000
v -0.00000000000000 1.98520459551484 -5.00000000000000
v 0.86824088833465 0.48520459551484 -4.92403876506104
v 0.86824088833465 1.98520459551484 -4.92403876506104
v 1.71010071662835 0.48520459551484 -4.69846310392954
v 1.71010071662835 1.98520459551484 -4.69846310392954
v 2.50000000000000 0.48520459551484 -4.33012701892220
v 2.50000000000000 1.98520459551484 -4.33012701892220
v 3.21393804843270 0.48520459551484 -3.83022221559489
v 3.21393804843270 1.98520459551484 -3.83022221559489
v 3.83022221559489 0.48520459551484 -3.21393804843270
v 3.83022221559489 1.98520459551484 -3.21393804843270
v 4.33012701892219 0.48520459551484 -2.50000000000000
v 4.33012701892219 1.98520459551484 -2.50000000000000
v 4.69846310392954 0.48520459551484 -1.71010071662834
v 4.69846310392954 1.98520459551484 -1.71010071662834
v 4.92403876506104 0.48520459551484 -0.86824088833465
v 4.92403876506104 1.98520459551484 -0.86824088833465
# 74 vertices

vn 1.00000000000000 0.00000000000000 0.00000000000000
vn 0.98480774196119 0.00000000000000 0.17364824034033
vn 0.93969262642802 0.00000000000000 0.34202012782408
vn 0.86602541280332 0.00000000000000 0.49999998437884
vn 0.76604432510019 0.00000000000000 0.64278775033583
vn 0.64278775033583 0.00000000000000 0.76604432510019
vn 0.49999998437884 0.00000000000000 0.86602541280332
vn 0.34202012782408 0.00000000000000 0.93969262642802
vn 0.17364824034033 0.00000000000000 0.98480774196119
vn 0.00000000000000 0.00000000000000 1.00000000000000
vn -0.17364824034033 0.00000000000000 0.98480774196119
vn -0.34202012782408 0.00000000000000 0.93969262642802
vn -0.49999998437884 0.00000000000000 0.86602541280332
vn -0.64278775033583 0.00000000000000 0.76604432510019
vn -0.76604432510019 0.00000000000000 0.64278775033583
vn -0.86602541280332 0.00000000000000 0.49999998437884
vn -0.93969262642802 0.00000000000000 0.34202012782408
vn -0.98480774196119 0.00000000000000 0.17364824034033
vn -1.00000000000000 0.00000000000000 0.00000000000000
vn -0.98480774196119 0.00000000000000 -0.17364824034033
vn -0.93969262642802 0.00000000000000 -0.34202012782408
vn -0.86602541280332 0.00000000000000 -0.49999998437884
vn -0.76604432510019 0.00000000000000 -0.64278775033583
vn -0.64278775033583 0.00000000000000 -0.76604432510019
vn -0.49999998437884 0.00000000000000 -0.86602541280332
vn -0.34202012782408 0.00000000000000 -0.93969262642802
vn -0.17364824034033 0.00000000000000 -0.98480774196119
vn 0.00000000000000 0.00000000000000 -1.00000000000000
vn 0.17364824034033 0.00000000000000 -0.98480774196119
vn 0.34202012782408 0.00000000000000 -0.93969262642802
vn 0.49999998437884 0.00000000000000 -0.86602541280332
vn 0.64278775033583 0.00000000000000 -0.76604432510019
vn 0.76604432510019 0.00000000000000 -0.64278775033583
vn 0.86602541280332 0.00000000000000 -0.49999998437884
vn 0.93969262642802 0.00000000000000 -0.34202012782408
vn 0.98480774196119 0.00000000000000 -0.17364824034033
# 36 normals

vt 0.50000000000000 -0.50000000000000 0.00000000000000
vt 0.00000000000000 -0.50000000000000 0.00000000000000
vt 0.00759612349793 -0.41317588090897 0.00000000000000
vt 0.00000000000000 -1.00000000000000 0.00000000000000
vt 0.00000000000000 -0.00000000000000 0.00000000000000
vt 0.02777777798474 -0.00000000000000 0.00000000000000
vt 0.02777777798474 -1.00000000000000 0.00000000000000
vt 1.00000000000000 -0.50000000000000 0.00000000000000
vt 0.99240386486053 -0.41317588090897 0.00000000000000
vt 0.03015368990600 -0.32898992300034 0.00000000000000
vt 0.05555555596948 -0.00000000000000 0.00000000000000
vt 0.05555555596948 -1.00000000000000 0.00000000000000
vt 0.96984630823135 -0.32898992300034 0.00000000000000
vt 0.06698729842901 -0.25000000000000 0.00000000000000
vt 0.08333333581686 -0.00000000000000 0.00000000000000
vt 0.08333333581686 -1.00000000000000 0.00000000000000
vt 0.93301272392273 -0.25000000000000 0.00000000000000
vt 0.11697778105736 -0.17860618233681 0.00000000000000
vt 0.11111111193895 -0.00000000000000 0.00000000000000
vt 0.11111111193895 -1.00000000000000 0.00000000000000
vt 0.88302224874496 -0.17860618233681 0.00000000000000
vt 0.17860619723797 -0.11697778105736 0.00000000000000
vt 0.13888889551163 -0.00000000000000 0.00000000000000
vt 0.13888889551163 -1.00000000000000 0.00000000000000
vt 0.82139378786087 -0.11697778105736 0.00000000000000
vt 0.25000000000000 -0.06698729097843 0.00000000000000
vt 0.16666667163372 -0.00000000000000 0.00000000000000
vt 0.16666667163372 -1.00000000000000 0.00000000000000
vt 0.75000000000000 -0.06698729097843 0.00000000000000
vt 0.32898992300034 -0.03015368804336 0.00000000000000
vt 0.19444444775581 -0.00000000000000 0.00000000000000
vt 0.19444444775581 -1.00000000000000 0.00000000000000
vt 0.67101007699966 -0.03015368804336 0.00000000000000
vt 0.41317591071129 -0.00759612303227 0.00000000000000
vt 0.22222222387791 -0.00000000000000 0.00000000000000
vt 0.22222222387791 -1.00000000000000 0.00000000000000
vt 0.58682405948639 -0.00759612303227 0.00000000000000
vt 0.50000000000000 -0.00000000000000 0.00000000000000
vt 0.25000000000000 -0.00000000000000 0.00000000000000
vt 0.25000000000000 -1.00000000000000 0.00000000000000
vt 0.27777779102325 -0.00000000000000 0.00000000000000
vt 0.27777779102325 -1.00000000000000 0.00000000000000
vt 0.30555555224419 -0.00000000000000 0.00000000000000
vt 0.30555555224419 -1.00000000000000 0.00000000000000
vt 0.33333334326744 -0.00000000000000 0.00000000000000
vt 0.33333334326744 -1.00000000000000 0.00000000000000
vt 0.36111110448837 -0.00000000000000 0.00000000000000
vt 0.36111110448837 -1.00000000000000 0.00000000000000
vt 0.38888889551163 -0.00000000000000 0.00000000000000
vt 0.38888889551163 -1.00000000000000 0.00000000000000
vt 0.41666665673256 -0.00000000000000 0.00000000000000
vt 0.41666665673256 -1.00000000000000 0.00000000000000
vt 0.44444444775581 -0.00000000000000 0.00000000000000
vt 0.44444444775581 -1.00000000000000 0.00000000000000
vt 0.47222220897675 -0.00000000000000 0.00000000000000
vt 0.47222220897675 -1.00000000000000 0.00000000000000
vt 0.50000000000000 -1.00000000000000 0.00000000000000
vt 0.99240386486053 -0.58682405948639 0.00000000000000
vt 0.52777779102325 -0.00000000000000 0.00000000000000
vt 0.52777779102325 -1.00000000000000 0.00000000000000
vt 0.00759612349793 -0.58682405948639 0.00000000000000
vt 0.96984630823135 -0.67101001739502 0.00000000000000
vt 0.55555558204651 -0.00000000000000 0.00000000000000
vt 0.55555558204651 -1.00000000000000 0.00000000000000
vt 0.03015368990600 -0.67101001739502 0.00000000000000
vt 0.93301272392273 -0.75000000000000 0.00000000000000
vt 0.58333331346512 -0.00000000000000 0.00000000000000
vt 0.58333331346512 -1.00000000000000 0.00000000000000
vt 0.06698729842901 -0.75000000000000 0.00000000000000
vt 0.88302224874496 -0.82139372825623 0.00000000000000
vt 0.61111110448837 -0.00000000000000 0.00000000000000
vt 0.61111110448837 -1.00000000000000 0.00000000000000
vt 0.11697778105736 -0.82139372825623 0.00000000000000
vt 0.82139378786087 -0.88302218914032 0.00000000000000
vt 0.63888889551163 -0.00000000000000 0.00000000000000
vt 0.63888889551163 -1.00000000000000 0.00000000000000
vt 0.17860619723797 -0.88302218914032 0.00000000000000
vt 0.75000000000000 -0.93301272392273 0.00000000000000
vt 0.66666668653488 -0.00000000000000 0.00000000000000
vt 0.66666668653488 -1.00000000000000 0.00000000000000
vt 0.25000000000000 -0.93301272392273 0.00000000000000
vt 0.67101007699966 -0.96984624862671 0.00000000000000
vt 0.69444441795349 -0.00000000000000 0.00000000000000
vt 0.69444441795349 -1.00000000000000 0.00000000000000
vt 0.32898992300034 -0.96984624862671 0.00000000000000
vt 0.58682405948639 -0.99240386486053 0.00000000000000
vt 0.72222220897675 -0.00000000000000 0.00000000000000
vt 0.72222220897675 -1.00000000000000 0.00000000000000
vt 0.41317591071129 -0.99240386486053 0.00000000000000
vt 0.75000000000000 -0.00000000000000 0.00000000000000
vt 0.75000000000000 -1.00000000000000 0.00000000000000
vt 0.77777779102325 -0.00000000000000 0.00000000000000
vt 0.77777779102325 -1.00000000000000 0.00000000000000
vt 0.80555558204651 -0.00000000000000 0.00000000000000
vt 0.80555558204651 -1.00000000000000 0.00000000000000
vt 0.83333331346512 -0.00000000000000 0.00000000000000
vt 0.83333331346512 -1.00000000000000 0.00000000000000
vt 0.86111110448837 -0.00000000000000 0.00000000000000
vt 0.86111110448837 -1.00000000000000 0.00000000000000
vt 0.88888889551163 -0.00000000000000 0.00000000000000
vt 0.88888889551163 -1.00000000000000 0.00000000000000
vt 0.91666668653488 -0.00000000000000 0.00000000000000
vt 0.91666668653488 -1.00000000000000 0.00000000000000
vt 0.94444441795349 -0.00000000000000 0.00000000000000
vt 0.94444441795349 -1.00000000000000 0.00000000000000
vt 0.97222220897675 -0.00000000000000 0.00000000000000
vt 0.97222220897675 -1.00000000000000 0.00000000000000
vt 1.00000000000000 -0.00000000000000 0.00000000000000
vt 1.00000000000000 -1.00000000000000 0.00000000000000
# 109 texture coordinates

o d_yuanzhu_1
usemtl lanse1
f 75/1/1 77/2/1 79/3/1
f 77/4/40 78/5/40 80/6/41 79/7/41
f 78/8/5 76/1/5 80/9/5
f 75/1/1 79/3/1 81/10/1
f 79/7/41 80/6/41 82/11/42 81/12/42
f 80/9/5 76/1/5 82/13/5
f 75/1/1 81/10/1 83/14/1
f 81/12/42 82/11/42 84/15/43 83/16/43
f 82/13/5 76/1/5 84/17/5
f 75/1/1 83/14/1 85/18/1
f 83/16/43 84/15/43 86/19/44 85/20/44
f 84/17/5 76/1/5 86/21/5
f 75/1/1 85/18/1 87/22/1
f 85/20/44 86/19/44 88/23/45 87/24/45
f 86/21/5 76/1/5 88/25/5
f 75/1/1 87/22/1 89/26/1
f 87/24/45 88/23/45 90/27/46 89/28/46
f 88/25/5 76/1/5 90/29/5
f 75/1/1 89/26/1 91/30/1
f 89/28/46 90/27/46 92/31/47 91/32/47
f 90/29/5 76/1/5 92/33/5
f 75/1/1 91/30/1 93/34/1
f 91/32/47 92/31/47 94/35/48 93/36/48
f 92/33/5 76/1/5 94/37/5
f 75/1/1 93/34/1 95/38/1
f 93/36/48 94/35/48 96/39/49 95/40/49
f 94/37/5 76/1/5 96/38/5
f 75/1/1 95/38/1 97/37/1
f 95/40/49 96/39/49 98/41/50 97/42/50
f 96/38/5 76/1/5 98/34/5
f 75/1/1 97/37/1 99/33/1
f 97/42/50 98/41/50 100/43/51 99/44/51
f 98/34/5 76/1/5 100/30/5
f 75/1/1 99/33/1 101/29/1
f 99/44/51 100/43/51 102/45/52 101/46/52
f 100/30/5 76/1/5 102/26/5
f 75/1/1 101/29/1 103/25/1
f 101/46/52 102/45/52 104/47/53 103/48/53
f 102/26/5 76/1/5 104/22/5
f 75/1/1 103/25/1 105/21/1
f 103/48/53 104/47/53 106/49/54 105/50/54
f 104/22/5 76/1/5 106/18/5
f 75/1/1 105/21/1 107/17/1
f 105/50/54 106/49/54 108/51/55 107/52/55
f 106/18/5 76/1/5 108/14/5
f 75/1/1 107/17/1 109/13/1
f 107/52/55 108/51/55 110/53/56 109/54/56
f 108/14/5 76/1/5 110/10/5
f 75/1/1 109/13/1 111/9/1
f 109/54/56 110/53/56 112/55/57 111/56/57
f 110/10/5 76/1/5 112/3/5
f 75/1/1 111/9/1 113/8/1
f 111/56/57 112/55/57 114/38/58 113/57/58
f 112/3/5 76/1/5 114/2/5
f 75/1/1 113/8/1 115/58/1
f 113/57/58 114/38/58 116/59/59 115/60/59
f 114/2/5 76/1/5 116/61/5
f 75/1/1 115/58/1 117/62/1
f 115/60/59 116/59/59 118/63/60 117/64/60
f 116/61/5 76/1/5 118/65/5
f 75/1/1 117/62/1 119/66/1
f 117/64/60 118/63/60 120/67/61 119/68/61
f 118/65/5 76/1/5 120/69/5
f 75/1/1 119/66/1 121/70/1
f 119/68/61 120/67/61 122/71/62 121/72/62
f 120/69/5 76/1/5 122/73/5
f 75/1/1 121/70/1 123/74/1
f 121/72/62 122/71/62 124/75/63 123/76/63
f 122/73/5 76/1/5 124/77/5
f 75/1/1 123/74/1 125/78/1
f 123/76/63 124/75/63 126/79/64 125/80/64
f 124/77/5 76/1/5 126/81/5
f 75/1/1 125/78/1 127/82/1
f 125/80/64 126/79/64 128/83/65 127/84/65
f 126/81/5 76/1/5 128/85/5
f 75/1/1 127/82/1 129/86/1
f 127/84/65 128/83/65 130/87/66 129/88/66
f 128/85/5 76/1/5 130/89/5
f 75/1/1 129/86/1 131/57/1
f 129/88/66 130/87/66 132/90/67 131/91/67
f 130/89/5 76/1/5 132/57/5
f 75/1/1 131/57/1 133/89/1
f 131/91/67 132/90/67 134/92/68 133/93/68
f 132/57/5 76/1/5 134/86/5
f 75/1/1 133/89/1 135/85/1
f 133/93/68 134/92/68 136/94/69 135/95/69
f 134/86/5 76/1/5 136/82/5
f 75/1/1 135/85/1 137/81/1
f 135/95/69 136/94/69 138/96/70 137/97/70
f 136/82/5 76/1/5 138/78/5
f 75/1/1 137/81/1 139/77/1
f 137/97/70 138/96/70 140/98/71 139/99/71
f 138/78/5 76/1/5 140/74/5
f 75/1/1 139/77/1 141/73/1
f 139/99/71 140/98/71 142/100/72 141/101/72
f 140/74/5 76/1/5 142/70/5
f 75/1/1 141/73/1 143/69/1
f 141/101/72 142/100/72 144/102/73 143/103/73
f 142/70/5 76/1/5 144/66/5
f 75/1/1 143/69/1 145/65/1
f 143/103/73 144/102/73 146/104/74 145/105/74
f 144/66/5 76/1/5 146/62/5
f 75/1/1 145/65/1 147/61/1
f 145/105/74 146/104/74 148/106/75 147/107/75
f 146/62/5 76/1/5 148/58/5
f 75/1/1 147/61/1 77/2/1
f 147/107/75 148/106/75 78/108/40 77/109/40
f 148/58/5 76/1/5 78/8/5

