# WaveFront *.obj file (generated by CINEMA 4D)

mtllib ./shoutixiang.mtl

v -1.79510150460359 -0.56283935151372 -5.01447639146922
v -1.79510150460359 -0.16283935151372 -5.01447639146922
v -1.40319604351183 -0.56283935151371 -5.01447639146922
v -1.40319604351183 -0.16283935151371 -5.01447639146922
v 1.21299303430464 -0.56283935151371 -5.01447639146922
v 1.21299303430464 -0.16283935151371 -5.01447639146922
v 1.60489849539641 -0.56283935151371 -5.01447639146922
v 1.60489849539641 -0.16283935151371 -5.01447639146922
v 1.60489849539641 -0.56283935151371 -4.81447639146922
v 1.60489849539641 -0.16283935151371 -4.81447639146922
v 1.21299303430464 -0.56283935151371 -4.81447639146922
v 1.21299303430464 -0.16283935151371 -4.81447639146922
v -1.40319604351183 -0.56283935151371 -4.81447639146922
v -1.40319604351183 -0.16283935151371 -4.81447639146922
v -1.79510150460359 -0.56283935151372 -4.81447639146922
v -1.79510150460359 -0.16283935151372 -4.81447639146922
v -1.79510150460360 0.69278309130228 -4.94345574036867
v -1.40319604351183 0.69278309130228 -4.94345574036867
v -1.40319604351183 0.69278309130228 -4.74345574036867
v -1.79510150460360 0.69278309130228 -4.74345574036867
v 1.21299303430464 0.69278309130228 -4.94345574036866
v 1.60489849539640 0.69278309130229 -4.94345574036866
v 1.60489849539640 0.69278309130229 -4.74345574036866
v 1.21299303430464 0.69278309130228 -4.74345574036866
# 24 vertices

vn 0.00000000000000 0.00000000000000 -1.00000000000000
vn 0.00000000000000 0.04139558020356 -0.99914283560440
vn 0.00000000000000 0.02759442148741 -0.99961920144762
vn 1.00000000000000 0.00000000000000 0.00000000000000
vn 0.00000000000000 0.00000000000000 1.00000000000000
vn 0.00000000000000 -0.04139557894991 0.99914283565634
vn 0.00000000000000 -0.02759442148741 0.99961920144762
vn 0.00000000000000 -0.04139558020356 0.99914283560440
vn -1.00000000000000 0.00000000000000 0.00000000000000
vn 0.00000000000000 1.00000000000000 0.00000000000000
vn 0.00000000000000 -1.00000000000000 0.00000000000000
vn 0.00000000000000 0.08272019439840 -0.99657281191024
vn 0.00000000000000 -0.08272019439840 0.99657281191024
vn 0.00000000000000 -0.08272019191241 0.99657281211659
# 14 normals

vt 0.00000000000000 -1.00000000000000 0.00000000000000
vt 0.00000000000000 -0.00000000000000 0.00000000000000
vt 0.33333334326744 -0.00000000000000 0.00000000000000
vt 0.33333334326744 -1.00000000000000 0.00000000000000
vt 0.66666668653488 -0.00000000000000 0.00000000000000
vt 0.66666668653488 -1.00000000000000 0.00000000000000
vt 1.00000000000000 -0.00000000000000 0.00000000000000
vt 1.00000000000000 -1.00000000000000 0.00000000000000
# 8 texture coordinates

o bashou
usemtl kafei1
f 1/1/1 2/2/2 4/3/3 3/4/1
f 3/4/1 4/3/3 6/5/3 5/6/1
f 5/6/1 6/5/3 8/7/2 7/8/1
f 7/1/4 8/2/4 10/7/4 9/8/4
f 9/1/5 10/2/6 12/3/7 11/4/5
f 11/4/5 12/3/7 14/5/7 13/6/5
f 13/6/5 14/5/7 16/7/8 15/8/5
f 15/1/9 16/2/9 2/7/9 1/8/9
f 17/1/10 20/2/10 19/3/10 18/4/10
f 4/4/10 14/3/10 12/5/10 6/6/10
f 21/6/10 24/5/10 23/7/10 22/8/10
f 15/1/11 1/2/11 3/3/11 13/4/11
f 13/4/11 3/3/11 5/5/11 11/6/11
f 11/6/11 5/5/11 7/7/11 9/8/11
f 2/1/2 17/1/12 18/4/12 4/4/3
f 4/4/4 18/4/4 19/3/4 14/3/4
f 14/3/7 19/3/13 20/2/13 16/2/8
f 16/2/9 20/2/9 17/1/9 2/1/9
f 6/6/3 21/6/12 22/8/12 8/8/2
f 8/8/4 22/8/4 23/7/4 10/7/4
f 10/7/6 23/7/14 24/5/14 12/5/7
f 12/5/9 24/5/9 21/6/9 6/6/9

v 1.01479004416912 -0.97406226836418 -4.54177100230937
v 1.01479003995444 -0.97406227283453 -4.64177100230937
v 1.81479003995444 -0.97406227283453 -4.64177103602685
v 1.81479004416912 -0.97406226836418 -4.54177103602685
v 0.91479004416912 -0.87406226836418 -4.54177100256503
v 0.91479003995444 -0.87406227283453 -4.64177100256503
v 1.01479003573975 -0.87406227730488 -4.74177100677972
v 1.81479003573975 -0.87406227730488 -4.74177104049720
v 1.91479003995444 -0.87406227283453 -4.64177104471188
v 1.91479004416912 -0.87406226836418 -4.54177104471188
v 1.81479004838380 -0.87406226389384 -4.44177104049720
v 1.01479004838381 -0.87406226389384 -4.44177100677972
v 0.91479004416912 0.92593773163581 -4.54177108303130
v 0.91479003995443 0.92593772716547 -4.64177108303130
v 1.01479003573975 0.92593772269512 -4.74177108724599
v 1.81479003573975 0.92593772269512 -4.74177112096347
v 1.91479003995443 0.92593772716547 -4.64177112517815
v 1.91479004416912 0.92593773163581 -4.54177112517815
v 1.81479004838380 0.92593773610616 -4.44177112096347
v 1.01479004838380 0.92593773610616 -4.44177108724599
v 1.01479004416912 1.02593773163581 -4.54177109171634
v 1.01479003995443 1.02593772716547 -4.64177109171634
v 1.81479003995443 1.02593772716547 -4.64177112543382
v 1.81479004416912 1.02593773163581 -4.54177112543382
v -1.97764128812693 -0.97406226836418 -4.54177087618782
v -1.97764129234162 -0.97406227283453 -4.64177087618782
v -1.17764129234162 -0.97406227283453 -4.64177090990530
v -1.17764128812694 -0.97406226836418 -4.54177090990530
v -2.07764128812694 -0.87406226836418 -4.54177087644349
v -2.07764129234162 -0.87406227283453 -4.64177087644349
v -1.97764129655630 -0.87406227730488 -4.74177088065817
v -1.17764129655631 -0.87406227730488 -4.74177091437565
v -1.07764129234162 -0.87406227283453 -4.64177091859033
v -1.07764128812694 -0.87406226836418 -4.54177091859033
v -1.17764128391225 -0.87406226389384 -4.44177091437565
v -1.97764128391225 -0.87406226389384 -4.44177088065817
v -2.07764128812694 0.92593773163581 -4.54177095690976
v -2.07764129234162 0.92593772716547 -4.64177095690976
v -1.97764129655631 0.92593772269512 -4.74177096112444
v -1.17764129655631 0.92593772269512 -4.74177099484192
v -1.07764129234162 0.92593772716547 -4.64177099905660
v -1.07764128812694 0.92593773163581 -4.54177099905660
v -1.17764128391225 0.92593773610616 -4.44177099484192
v -1.97764128391225 0.92593773610616 -4.44177096112444
v -1.97764128812694 1.02593773163581 -4.54177096559479
v -1.97764129234162 1.02593772716547 -4.64177096559479
v -1.17764129234162 1.02593772716547 -4.64177099931227
v -1.17764128812694 1.02593773163581 -4.54177099931227
v -4.95996492058603 -0.01517600980120 5.44879493215709
v -4.95996533362514 -0.01517644789533 -4.35120506784290
v 4.84003466637485 -0.01517644789533 -4.35120548088201
v 4.84003507941396 -0.01517600980120 5.44879451911798
v -5.05996492058603 0.08482399019880 5.44879493190142
v -5.05996533362514 0.08482355210467 -4.35120506809856
v -4.95996533783982 0.08482354763432 -4.45120507231325
v 4.84003466216017 0.08482354763432 -4.45120548535235
v 4.94003466637485 0.08482355210467 -4.35120548956704
v 4.94003507941396 0.08482399019880 5.44879451043294
v 4.84003508362865 0.08482399466915 5.54879451464763
v -4.95996491637134 0.08482399466915 5.54879492768674
v -5.05996492058603 2.38482399019880 5.44879482908341
v -5.05996533362514 2.38482355210466 -4.35120517091657
v -4.95996533783983 2.38482354763432 -4.45120517513126
v 4.84003466216016 2.38482354763432 -4.45120558817037
v 4.94003466637485 2.38482355210466 -4.35120559238505
v 4.94003507941396 2.38482399019880 5.44879440761493
v 4.84003508362864 2.38482399466915 5.54879441182961
v -4.95996491637135 2.38482399466915 5.54879482486872
v -4.95996492058603 2.48482399019880 5.44879482039838
v -4.95996533362514 2.48482355210466 -4.35120517960161
v 4.84003466637485 2.48482355210466 -4.35120559264072
v 4.84003507941396 2.48482399019880 5.44879440735927
v -4.95996492058602 -2.52009277929086 5.44879504413559
v -4.95996533362513 -2.52009321738500 -4.35120495586439
v 4.84003466637486 -2.52009321738500 -4.35120536890350
v 4.84003507941397 -2.52009277929086 5.44879463109648
v -5.05996492058602 -2.42009277929086 5.44879504387993
v -5.05996533362513 -2.42009321738500 -4.35120495612006
v -4.95996533783982 -2.42009322185535 -4.45120496033474
v 4.84003466216017 -2.42009322185535 -4.45120537337385
v 4.94003466637486 -2.42009321738500 -4.35120537758853
v 4.94003507941397 -2.42009277929086 5.44879462241145
v 4.84003508362865 -2.42009277482051 5.54879462662613
v -4.95996491637134 -2.42009277482051 5.54879503966524
v -5.05996492058603 -0.12009277929086 5.44879494106191
v -5.05996533362514 -0.12009321738500 -4.35120505893807
v -4.95996533783982 -0.12009322185535 -4.45120506315275
v 4.84003466216017 -0.12009322185535 -4.45120547619186
v 4.94003466637485 -0.12009321738500 -4.35120548040655
v 4.94003507941396 -0.12009277929086 5.44879451959344
v 4.84003508362865 -0.12009277482051 5.54879452380812
v -4.95996491637134 -0.12009277482051 5.54879493684723
v -4.95996492058603 -0.02009277929086 5.44879493237688
v -4.95996533362514 -0.02009321738500 -4.35120506762310
v 4.84003466637485 -0.02009321738500 -4.35120548066221
v 4.84003507941396 -0.02009277929086 5.44879451933777
# 96 vertices

vt 0.00000000000000 -0.92570114135742 0.00000000000000
vt 0.38898453116417 -0.92570114135742 0.00000000000000
vt 0.38898453116417 -1.00000000000000 0.00000000000000
vt 0.00000000000000 -0.07429885864258 0.00000000000000
vt 0.38898453116417 -0.07429885864258 0.00000000000000
vt 0.38898453116417 -0.00000000000000 0.00000000000000
vt 0.69449228048325 -1.00000000000000 0.00000000000000
vt 1.00000000000000 -0.92570114135742 0.00000000000000
vt 1.00000000000000 -0.07429885864258 0.00000000000000
vt 0.69449228048325 -0.00000000000000 0.00000000000000
vt 0.83587610721588 -0.92570114135742 0.00000000000000
vt 0.83587610721588 -1.00000000000000 0.00000000000000
vt 0.83587610721588 -0.07429885864258 0.00000000000000
vt 0.83587610721588 -0.00000000000000 0.00000000000000
vt 0.91793805360794 -1.00000000000000 0.00000000000000
vt 0.91793805360794 -0.00000000000000 0.00000000000000
vt 0.00000000000000 -0.93991196155548 0.00000000000000
vt 0.98422431945801 -0.93991196155548 0.00000000000000
vt 0.98422431945801 -1.00000000000000 0.00000000000000
vt 0.00000000000000 -0.06008800864220 0.00000000000000
vt 0.98422431945801 -0.06008800864220 0.00000000000000
vt 0.98422431945801 -0.00000000000000 0.00000000000000
vt 0.99211215972900 -1.00000000000000 0.00000000000000
vt 1.00000000000000 -0.93991196155548 0.00000000000000
vt 1.00000000000000 -0.06008800864220 0.00000000000000
vt 0.99211215972900 -0.00000000000000 0.00000000000000
# 26 texture coordinates

o kefeixiangzi.3
usemtl kafei2
f 25/1 29/9 30/10 26/11
f 29/9 37/12 38/13 30/10
f 37/12 45/2 46/14 38/13
f 26/15 30/10 31/16
f 30/10 38/13 39/17 31/16
f 38/13 46/18 39/17
f 26/1 31/9 32/19 27/20
f 31/9 39/12 40/21 32/19
f 39/12 46/2 47/22 40/21
f 27/23 32/19 33/16
f 32/19 40/21 41/17 33/16
f 40/21 47/24 41/17
f 27/1 33/9 34/10 28/11
f 33/9 41/12 42/13 34/10
f 41/12 47/2 48/14 42/13
f 28/15 34/10 35/16
f 34/10 42/13 43/17 35/16
f 42/13 48/18 43/17
f 28/1 35/9 36/19 25/20
f 35/9 43/12 44/21 36/19
f 43/12 48/2 45/22 44/21
f 25/23 36/19 29/16
f 36/19 44/21 37/17 29/16
f 44/21 45/24 37/17
f 45/1 48/2 47/7 46/8
f 25/2 26/7 27/8 28/1
f 49/1 53/9 54/10 50/11
f 53/9 61/12 62/13 54/10
f 61/12 69/2 70/14 62/13
f 50/15 54/10 55/16
f 54/10 62/13 63/17 55/16
f 62/13 70/18 63/17
f 50/1 55/9 56/19 51/20
f 55/9 63/12 64/21 56/19
f 63/12 70/2 71/22 64/21
f 51/23 56/19 57/16
f 56/19 64/21 65/17 57/16
f 64/21 71/24 65/17
f 51/1 57/9 58/10 52/11
f 57/9 65/12 66/13 58/10
f 65/12 71/2 72/14 66/13
f 52/15 58/10 59/16
f 58/10 66/13 67/17 59/16
f 66/13 72/18 67/17
f 52/1 59/9 60/19 49/20
f 59/9 67/12 68/21 60/19
f 67/12 72/2 69/22 68/21
f 49/23 60/19 53/16
f 60/19 68/21 61/17 53/16
f 68/21 69/24 61/17
f 69/1 72/2 71/7 70/8
f 49/2 50/7 51/8 52/1
f 73/1 77/25 78/26 74/27
f 77/25 85/28 86/29 78/26
f 85/28 93/2 94/30 86/29
f 74/31 78/26 79/32
f 78/26 86/29 87/33 79/32
f 86/29 94/34 87/33
f 74/1 79/25 80/26 75/27
f 79/25 87/28 88/29 80/26
f 87/28 94/2 95/30 88/29
f 75/31 80/26 81/32
f 80/26 88/29 89/33 81/32
f 88/29 95/34 89/33
f 75/1 81/25 82/26 76/27
f 81/25 89/28 90/29 82/26
f 89/28 95/2 96/30 90/29
f 76/31 82/26 83/32
f 82/26 90/29 91/33 83/32
f 90/29 96/34 91/33
f 76/1 83/25 84/26 73/27
f 83/25 91/28 92/29 84/26
f 91/28 96/2 93/30 92/29
f 73/31 84/26 77/32
f 84/26 92/29 85/33 77/32
f 92/29 93/34 85/33
f 93/1 96/2 95/7 94/8
f 73/2 74/7 75/8 76/1
f 97/1 101/25 102/26 98/27
f 101/25 109/28 110/29 102/26
f 109/28 117/2 118/30 110/29
f 98/31 102/26 103/32
f 102/26 110/29 111/33 103/32
f 110/29 118/34 111/33
f 98/1 103/25 104/26 99/27
f 103/25 111/28 112/29 104/26
f 111/28 118/2 119/30 112/29
f 99/31 104/26 105/32
f 104/26 112/29 113/33 105/32
f 112/29 119/34 113/33
f 99/1 105/25 106/26 100/27
f 105/25 113/28 114/29 106/26
f 113/28 119/2 120/30 114/29
f 100/31 106/26 107/32
f 106/26 114/29 115/33 107/32
f 114/29 120/34 115/33
f 100/1 107/25 108/26 97/27
f 107/25 115/28 116/29 108/26
f 115/28 120/2 117/30 116/29
f 97/31 108/26 101/32
f 108/26 116/29 109/33 101/32
f 116/29 117/34 109/33
f 117/1 120/2 119/7 118/8
f 97/2 98/7 99/8 100/1

