# Rhino

mtllib shudun.mtl
g Default
o c_shudun
usemtl luse02
v 4.2109952 -2.5 2.7013248
v 2.9552 -2.5 4.0368
v 0.8123 -2.5 4.9347
v 0.4918728 -2.5 4.9762472
v -0.4918728 -2.5 4.9762472
v -0.9700224 -2.5 4.9064576
v -2.3001 -2.5 4.4429
v -2.7013248 -2.5 4.2109952
v -3.0778104 -2.5 3.9440696
v -4.0368 -2.5 2.9552
v -4.2922968 -2.5 2.5702232
v -4.5120384 -2.5 2.1612416
v -5 -2.5 0
v -4.9762472 -2.5 -0.4918728
v -4.4429 -2.5 -2.3001
v -4.2109952 -2.5 -2.7013248
v -3.9440696 -2.5 -3.0778104
v -2.9552 -2.5 -4.0368
v -2.5702232 -2.5 -4.2922968
v -0.8123 -2.5 -4.9347
v -0.4918728 -2.5 -4.9762472
v 0 -2.5 -5
v 1.4322456 -2.5 -4.7928344
v 3.0778104 -2.5 -3.9440696
v 3.4273536 -2.5 -3.6443264
v 3.7477512 -2.5 -3.3139688
v 4.0368 -2.5 -2.9552
v 4.2922968 -2.5 -2.5702232
v 4.9064576 2.5 0.9700224
v 4.9064576 2.5 0.9700224
v 4.7928344 2.5 1.4322456
v 4.6375808 2.5 1.8763392
v 4.4429 2.5 2.3001
v 3.9440696 2.5 3.0778104
v 3.9440696 2.5 3.0778104
v 3.6443264 2.5 3.4273536
v 3.3139688 2.5 3.7477512
v 2.9552 2.5 4.0368
v 0.8123 2.5 4.9347
v 0.4918728 2.5 4.9762472
v 0 2.5 5
v 0 2.5 5
v -1.4322456 2.5 4.7928344
v -1.8763392 2.5 4.6375808
v -2.3001 2.5 4.4429
v -3.0778104 2.5 3.9440696
v -4.6938216 2.5 1.7304584
v -4.6938216 2.5 1.7304584
v -5 2.5 0
v -4.9064576 2.5 -0.9700224
v -4.7928344 2.5 -1.4322456
v -3.9440696 2.5 -3.0778104
v -3.6443264 2.5 -3.4273536
v -3.3139688 2.5 -3.7477512
v -2.9552 2.5 -4.0368
v -2.5702232 2.5 -4.2922968
v 1.8763392 2.5 -4.6375808
v 2.3001 2.5 -4.4429
v 4.5120384 2.5 -2.1612416
v 4.6938216 2.5 -1.7304584
v 4.9347 2.5 -0.8123
v 4.9762472 2.5 -0.4918728
v 5 -2.5 0
v 4.9762472 -2.5 0.4918728
v 4.9064576 -2.5 0.9700224
v 4.7928344 -2.5 1.4322456
v 4.6375808 -2.5 1.8763392
v 4.4429 -2.5 2.3001
v 3.9440696 -2.5 3.0778104
v 3.6443264 -2.5 3.4273536
v 3.3139688 -2.5 3.7477512
v 2.5702232 -2.5 4.2922968
v 2.1612416 -2.5 4.5120384
v 1.7304584 -2.5 4.6938216
v 1.2800768 -2.5 4.8354432
v 0 -2.5 5
v -1.4322456 -2.5 4.7928344
v -1.8763392 -2.5 4.6375808
v -3.4273536 -2.5 3.6443264
v -3.7477512 -2.5 3.3139688
v -4.6938216 -2.5 1.7304584
v -4.8354432 -2.5 1.2800768
v -4.9347 -2.5 0.8123
v -4.9762472 -2.5 0.4918728
v -4.9064576 -2.5 -0.9700224
v -4.7928344 -2.5 -1.4322456
v -4.6375808 -2.5 -1.8763392
v -3.6443264 -2.5 -3.4273536
v -3.3139688 -2.5 -3.7477512
v -2.1612416 -2.5 -4.5120384
v -1.7304584 -2.5 -4.6938216
v -1.2800768 -2.5 -4.8354432
v 0.4918728 -2.5 -4.9762472
v 0.9700224 -2.5 -4.9064576
v 1.8763392 -2.5 -4.6375808
v 2.3001 -2.5 -4.4429
v 2.7013248 -2.5 -4.2109952
v 4.5120384 -2.5 -2.1612416
v 4.6938216 -2.5 -1.7304584
v 4.8354432 -2.5 -1.2800768
v 4.9347 -2.5 -0.8123
v 4.9762472 -2.5 -0.4918728
v 5 2.5 0
v 4.9762472 2.5 0.4918728
v 4.2109952 2.5 2.7013248
v 4.2109952 2.5 2.7013248
v 2.5702232 2.5 4.2922968
v 2.1612416 2.5 4.5120384
v 1.7304584 2.5 4.6938216
v 1.2800768 2.5 4.8354432
v -0.4918728 2.5 4.9762472
v -0.9700224 2.5 4.9064576
v -2.7013248 2.5 4.2109952
v -3.4273536 2.5 3.6443264
v -3.7477512 2.5 3.3139688
v -3.7477512 2.5 3.3139688
v -4.0368 2.5 2.9552
v -4.0368 2.5 2.9552
v -4.2922968 2.5 2.5702232
v -4.5120384 2.5 2.1612416
v -4.8354432 2.5 1.2800768
v -4.9347 2.5 0.8123
v -4.9347 2.5 0.8123
v -4.9762472 2.5 0.4918728
v -4.9762472 2.5 -0.4918728
v -4.6375808 2.5 -1.8763392
v -4.4429 2.5 -2.3001
v -4.2109952 2.5 -2.7013248
v -2.1612416 2.5 -4.5120384
v -1.7304584 2.5 -4.6938216
v -1.2800768 2.5 -4.8354432
v 1.4322456 2.5 -4.7928344
v 2.7013248 2.5 -4.2109952
v 3.0778104 2.5 -3.9440696
v 3.4273536 2.5 -3.6443264
v 3.7477512 2.5 -3.3139688
v 4.0368 2.5 -2.9552
v 4.2922968 2.5 -2.5702232
v 4.8354432 2.5 -1.2800768
v 1.16172124032899 2.5 -4.8593344013495
v -0.65964409105628 2.5 -0.06836151534008
v -3.38726828927336 2.5 0.35738488881262
v -3.38726828927336 2.5 0.35738488881262
v -0.75741999212295 2.5 -0.8196205970374
v 4.63385799374129 2.5 1.88444261522347
v 4.63385799374129 2.5 1.88444261522347
v 0.6889938508723999 2.5 -0.84737589398024
v 0.59215851093063 2.5 -0.02555051521392
v 3.382379732682 2.5 0.41868314983744
v 3.382379732682 2.5 0.41868314983744
v 3.382379732682 2.5 0.41868314983744
v -0.42320201580873 2.5 1.74833620247452
v -0.33687810590095 2.5 2.44222832457025
v -2.50940597918869 2.5 2.88391476737701
v -2.50940597918869 2.5 2.88391476737701
v 0.29995744348203 2.5 2.45431120754434
v 2.57945238897032 2.5 2.88340686733894
v 2.57945238897032 2.5 2.88340686733894
v 0.38225279707914 2.5 1.74802661321145
vn 0 -1 0
vn 0 -1 0
vn 0 -1 0
vn 0 -1 0
vn 0 -1 0
vn 0 -1 0
vn 0 -1 0
vn 0 -1 0
vn 0 -1 0
vn 0 -1 0
vn 0 -1 0
vn 0 -1 0
vn 0 -1 0
vn 0 -1 0
vn 0 -1 0
vn 0 -1 0
vn 0 -1 0
vn 0 -1 0
vn 0 -1 0
vn 0 -1 0
vn 0 -1 0
vn 0 -1 0
vn 0 -1 0
vn 0 -1 0
vn 0 -1 0
vn 0 -1 0
vn 0 -1 0
vn 0 -1 0
vn 0 1 0
vn 0 1 0
vn 0 1 0
vn 0 1 0
vn 0 1 0
vn 0 1 0
vn 0 1 0
vn 0 1 0
vn 0 1 0
vn 0 1 0
vn 0 1 0
vn 0 1 0
vn 0 1 0
vn 0 1 0
vn 0 1 0
vn 0 1 0
vn 0 1 0
vn 0 1 0
vn 0 1 0
vn 0 1 0
vn 0 1 0
vn 0 1 0
vn 0 1 0
vn 0 1 0
vn 0 1 0
vn 0 1 0
vn 0 1 0
vn 0 1 0
vn 0 1 0
vn 0 1 0
vn 0 1 0
vn 0 1 0
vn 0 1 0
vn 0 1 0
vn 0 -1 0
vn 0 -1 0
vn 0 -1 0
vn 0 -1 0
vn 0 -1 0
vn 0 -1 0
vn 0 -1 0
vn 0 -1 0
vn 0 -1 0
vn 0 -1 0
vn 0 -1 0
vn 0 -1 0
vn 0 -1 0
vn 0 -1 0
vn 0 -1 0
vn 0 -1 0
vn 0 -1 0
vn 0 -1 0
vn 0 -1 0
vn 0 -1 0
vn 0 -1 0
vn 0 -1 0
vn 0 -1 0
vn 0 -1 0
vn 0 -1 0
vn 0 -1 0
vn 0 -1 0
vn 0 -1 0
vn 0 -1 0
vn 0 -1 0
vn 0 -1 0
vn 0 -1 0
vn 0 -1 0
vn 0 -1 0
vn 0 -1 0
vn 0 -1 0
vn 0 -1 0
vn 0 -1 0
vn 0 -1 0
vn 0 -1 0
vn 0 1 0
vn 0 1 0
vn 0 1 0
vn 0 1 0
vn 0 1 0
vn 0 1 0
vn 0 1 0
vn 0 1 0
vn 0 1 0
vn 0 1 0
vn 0 1 0
vn 0 1 0
vn 0 1 0
vn 0 1 0
vn 0 1 0
vn 0 1 0
vn 0 1 0
vn 0 1 0
vn 0 1 0
vn 0 1 0
vn 0 1 0
vn 0 1 0
vn 0 1 0
vn 0 1 0
vn 0 1 0
vn 0 1 0
vn 0 1 0
vn 0 1 0
vn 0 1 0
vn 0 1 0
vn 0 1 0
vn 0 1 0
vn 0 1 0
vn 0 1 0
vn 0 1 0
vn 0 1 0
vn 0 1 0
vn 0 1 0
vn 0 1 0
vn 0 1 0
vn 0 1 0
vn 0 1 0
vn 0 1 0
vn 0 1 0
vn 0 1 0
vn 0 1 0
vn 0 1 0
vn 0 1 0
vn 0 1 0
vn 0 1 0
vn 0 1 0
vn 0 1 0
vn 0 1 0
vn 0 1 0
vn 0 1 0
vn 0 1 0
vn 0 1 0
f 1//1 69//69 64//64
f 69//69 70//70 64//64
f 70//70 71//71 4//4
f 71//71 2//2 4//4
f 2//2 72//72 3//3
f 72//72 73//73 75//75
f 73//73 74//74 75//75
f 75//75 3//3 72//72
f 3//3 4//4 2//2
f 4//4 76//76 63//63
f 76//76 5//5 84//84
f 5//5 6//6 8//8
f 6//6 77//77 7//7
f 77//77 78//78 7//7
f 7//7 8//8 6//6
f 8//8 9//9 5//5
f 9//9 79//79 5//5
f 79//79 80//80 84//84
f 80//80 10//10 84//84
f 10//10 11//11 83//83
f 11//11 12//12 82//82
f 12//12 81//81 82//82
f 82//82 83//83 11//11
f 83//83 84//84 10//10
f 84//84 5//5 79//79
f 84//84 13//13 76//76
f 13//13 14//14 21//21
f 14//14 85//85 16//16
f 85//85 86//86 15//15
f 86//86 87//87 15//15
f 15//15 16//16 85//85
f 16//16 17//17 14//14
f 17//17 88//88 14//14
f 88//88 89//89 21//21
f 89//89 18//18 21//21
f 18//18 19//19 20//20
f 19//19 90//90 92//92
f 90//90 91//91 92//92
f 92//92 20//20 19//19
f 20//20 21//21 18//18
f 21//21 14//14 88//88
f 21//21 22//22 13//13
f 22//22 93//93 102//102
f 93//93 94//94 97//97
f 94//94 23//23 96//96
f 23//23 95//95 96//96
f 96//96 97//97 94//94
f 97//97 24//24 93//93
f 24//24 25//25 93//93
f 25//25 26//26 102//102
f 26//26 27//27 102//102
f 27//27 28//28 101//101
f 28//28 98//98 100//100
f 98//98 99//99 100//100
f 100//100 101//101 28//28
f 101//101 102//102 27//27
f 102//102 93//93 25//25
f 102//102 63//63 22//22
f 63//63 76//76 13//13
f 63//63 13//13 22//22
f 70//70 4//4 63//63
f 70//70 63//63 64//64
f 64//64 65//65 1//1
f 65//65 66//66 68//68
f 66//66 67//67 68//68
f 68//68 1//1 65//65
f 155//155 152//152 142//142
f 152//152 141//141 142//142
f 142//142 48//48 120//120
f 120//120 119//119 155//155
f 119//119 118//118 155//155
f 155//155 142//142 120//120
f 154//154 116//116 114//114
f 114//114 46//46 154//154
f 46//46 113//113 154//154
f 113//113 45//45 154//154
f 45//45 44//44 154//154
f 44//44 43//43 153//153
f 43//43 112//112 153//153
f 111//111 42//42 153//153
f 111//111 153//153 112//112
f 153//153 154//154 44//44
f 117//117 115//115 155//155
f 123//123 121//121 47//47 143//143
f 157//157 106//106 33//33
f 33//33 145//145 151//151
f 151//151 148//148 159//159
f 157//157 33//33 151//151
f 157//157 151//151 159//159
f 158//158 156//156 109//109
f 156//156 41//41 40//40
f 40//40 39//39 156//156
f 110//110 109//109 156//156
f 110//110 156//156 39//39
f 109//109 108//108 158//158
f 108//108 107//107 158//158
f 107//107 38//38 158//158
f 38//38 37//37 158//158
f 36//36 35//35 158//158
f 36//36 158//158 37//37
f 34//34 105//105 158//158
f 30//30 104//104 149//149
f 104//104 103//103 149//149
f 103//103 62//62 149//149
f 62//62 61//61 149//149
f 61//61 139//139 149//149
f 139//139 60//60 149//149
f 60//60 59//59 149//149
f 59//59 138//138 149//149
f 138//138 137//137 147//147
f 137//137 136//136 147//147
f 136//136 135//135 147//147
f 135//135 134//134 147//147
f 134//134 133//133 147//147
f 133//133 58//58 147//147
f 58//58 57//57 147//147
f 132//132 140//140 147//147
f 132//132 147//147 57//57
f 147//147 149//149 138//138
f 144//144 131//131 130//130
f 130//130 129//129 144//144
f 129//129 56//56 144//144
f 56//56 55//55 144//144
f 55//55 54//54 144//144
f 54//54 53//53 144//144
f 53//53 52//52 144//144
f 52//52 128//128 144//144
f 128//128 127//127 144//144
f 127//127 126//126 143//143
f 126//126 51//51 143//143
f 51//51 50//50 143//143
f 50//50 125//125 143//143
f 125//125 49//49 143//143
f 124//124 122//122 143//143
f 124//124 143//143 49//49
f 143//143 144//144 127//127
f 146//146 32//32 150//150
f 31//31 29//29 150//150
f 31//31 150//150 32//32
o c_shudun
usemtl luse03
v 4.2109952 -2.5 2.7013248
v 2.9552 -2.5 4.0368
v 0.8123 -2.5 4.9347
v 0.4918728 -2.5 4.9762472
v -0.4918728 -2.5 4.9762472
v -0.9700224 -2.5 4.9064576
v -2.3001 -2.5 4.4429
v -2.7013248 -2.5 4.2109952
v -3.0778104 -2.5 3.9440696
v -4.0368 -2.5 2.9552
v -4.2922968 -2.5 2.5702232
v -4.5120384 -2.5 2.1612416
v -5 -2.5 0
v -4.9762472 -2.5 -0.4918728
v -4.4429 -2.5 -2.3001
v -4.2109952 -2.5 -2.7013248
v -3.9440696 -2.5 -3.0778104
v -2.9552 -2.5 -4.0368
v -2.5702232 -2.5 -4.2922968
v -0.8123 -2.5 -4.9347
v -0.4918728 -2.5 -4.9762472
v 0 -2.5 -5
v 1.4322456 -2.5 -4.7928344
v 3.0778104 -2.5 -3.9440696
v 3.4273536 -2.5 -3.6443264
v 3.7477512 -2.5 -3.3139688
v 4.0368 -2.5 -2.9552
v 4.2922968 -2.5 -2.5702232
v 4.9064576 2.5 0.9700224
v 4.7928344 2.5 1.4322456
v 4.6375808 2.5 1.8763392
v 4.6375808 2.5 1.8763392
v 4.4429 2.5 2.3001
v 3.9440696 2.5 3.0778104
v 3.6443264 2.5 3.4273536
v 3.3139688 2.5 3.7477512
v 2.9552 2.5 4.0368
v 0.8123 2.5 4.9347
v 0.4918728 2.5 4.9762472
v 0 2.5 5
v 0 2.5 5
v -1.4322456 2.5 4.7928344
v -1.8763392 2.5 4.6375808
v -2.3001 2.5 4.4429
v -3.0778104 2.5 3.9440696
v -4.6938216 2.5 1.7304584
v -5 2.5 0
v -4.9064576 2.5 -0.9700224
v -4.7928344 2.5 -1.4322456
v -3.9440696 2.5 -3.0778104
v -3.6443264 2.5 -3.4273536
v -3.3139688 2.5 -3.7477512
v -2.9552 2.5 -4.0368
v -2.5702232 2.5 -4.2922968
v -0.8123 2.5 -4.9347
v -0.8123 2.5 -4.9347
v -0.4918728 2.5 -4.9762472
v -0.4918728 2.5 -4.9762472
v 0 2.5 -5
v 0 2.5 -5
v 0.4918728 2.5 -4.9762472
v 0.4918728 2.5 -4.9762472
v 1.8763392 2.5 -4.6375808
v 2.3001 2.5 -4.4429
v 4.5120384 2.5 -2.1612416
v 4.6938216 2.5 -1.7304584
v 4.9347 2.5 -0.8123
v 4.9762472 2.5 -0.4918728
v 5 -2.5 0
v 5 -2.5 0
v 4.9762472 -2.5 0.4918728
v 4.9064576 -2.5 0.9700224
v 4.7928344 -2.5 1.4322456
v 4.6375808 -2.5 1.8763392
v 4.6375808 -2.5 1.8763392
v 4.4429 -2.5 2.3001
v 3.9440696 -2.5 3.0778104
v 3.6443264 -2.5 3.4273536
v 3.3139688 -2.5 3.7477512
v 2.5702232 -2.5 4.2922968
v 2.1612416 -2.5 4.5120384
v 1.7304584 -2.5 4.6938216
v 1.2800768 -2.5 4.8354432
v 0 -2.5 5
v -1.4322456 -2.5 4.7928344
v -1.8763392 -2.5 4.6375808
v -3.4273536 -2.5 3.6443264
v -3.7477512 -2.5 3.3139688
v -4.6938216 -2.5 1.7304584
v -4.8354432 -2.5 1.2800768
v -4.9347 -2.5 0.8123
v -4.9762472 -2.5 0.4918728
v -4.9064576 -2.5 -0.9700224
v -4.7928344 -2.5 -1.4322456
v -4.6375808 -2.5 -1.8763392
v -3.6443264 -2.5 -3.4273536
v -3.3139688 -2.5 -3.7477512
v -2.1612416 -2.5 -4.5120384
v -1.7304584 -2.5 -4.6938216
v -1.2800768 -2.5 -4.8354432
v 0.4918728 -2.5 -4.9762472
v 0.9700224 -2.5 -4.9064576
v 1.8763392 -2.5 -4.6375808
v 2.3001 -2.5 -4.4429
v 2.7013248 -2.5 -4.2109952
v 4.5120384 -2.5 -2.1612416
v 4.6938216 -2.5 -1.7304584
v 4.8354432 -2.5 -1.2800768
v 4.9347 -2.5 -0.8123
v 4.9762472 -2.5 -0.4918728
v 5 2.5 0
v 5 2.5 0
v 4.9762472 2.5 0.4918728
v 4.2109952 2.5 2.7013248
v 2.5702232 2.5 4.2922968
v 2.1612416 2.5 4.5120384
v 1.7304584 2.5 4.6938216
v 1.2800768 2.5 4.8354432
v -0.4918728 2.5 4.9762472
v -0.9700224 2.5 4.9064576
v -2.7013248 2.5 4.2109952
v -3.4273536 2.5 3.6443264
v -3.7477512 2.5 3.3139688
v -4.0368 2.5 2.9552
v -4.2922968 2.5 2.5702232
v -4.5120384 2.5 2.1612416
v -4.8354432 2.5 1.2800768
v -4.9347 2.5 0.8123
v -4.9762472 2.5 0.4918728
v -4.9762472 2.5 -0.4918728
v -4.6375808 2.5 -1.8763392
v -4.4429 2.5 -2.3001
v -4.2109952 2.5 -2.7013248
v -2.1612416 2.5 -4.5120384
v -1.7304584 2.5 -4.6938216
v -1.2800768 2.5 -4.8354432
v -1.2800768 2.5 -4.8354432
v 0.9700224 2.5 -4.9064576
v 0.9700224 2.5 -4.9064576
v 1.4322456 2.5 -4.7928344
v 1.4322456 2.5 -4.7928344
v 2.7013248 2.5 -4.2109952
v 3.0778104 2.5 -3.9440696
v 3.4273536 2.5 -3.6443264
v 3.7477512 2.5 -3.3139688
v 4.0368 2.5 -2.9552
v 4.2922968 2.5 -2.5702232
v 4.8354432 2.5 -1.2800768
v 1.16172124032899 2.5 -4.8593344013495
v 1.16172124032899 2.5 -4.8593344013495
v -0.65964409105628 2.5 -0.06836151534008
v -0.65964409105628 2.5 -0.06836151534008
v -3.38726828927336 2.5 0.35738488881262
v -0.75741999212295 2.5 -0.8196205970374
v -0.75741999212295 2.5 -0.8196205970374
v 4.63385799374129 2.5 1.88444261522347
v 0.6889938508723999 2.5 -0.84737589398024
v 0.6889938508723999 2.5 -0.84737589398024
v 0.59215851093063 2.5 -0.02555051521392
v 0.59215851093063 2.5 -0.02555051521392
v 3.382379732682 2.5 0.41868314983744
v -0.42320201580873 2.5 1.74833620247452
v -0.42320201580873 2.5 1.74833620247452
v -0.33687810590095 2.5 2.44222832457025
v -0.33687810590095 2.5 2.44222832457025
v -2.50940597918869 2.5 2.88391476737701
v 0.29995744348203 2.5 2.45431120754434
v 0.29995744348203 2.5 2.45431120754434
v 2.57945238897032 2.5 2.88340686733894
v 0.38225279707914 2.5 1.74802661321145
v 0.38225279707914 2.5 1.74802661321145
vn 0.8416807055473328 0 0.5399755239486694
vn 0.5908046960830688 0 0.8068146109580994
vn 0.1682113260030746 0 0.9857509732246399
vn 0.08848191052675247 0 0.9960777759552002
vn -0.09644350409507751 0 0.9953384399414062
vn -0.1917912513017654 0 0.9814357161521912
vn -0.4594418406486511 0 0.8882078528404236
vn -0.5399755239486694 0 0.8416807055473328
vn -0.6153202652931213 0 0.7882772088050842
vn -0.8068146109580994 0 0.5908046960830688
vn -0.8579768538475037 0 0.513688325881958
vn -0.9021053314208984 0 0.4315158724784851
vn -1 0 0
vn -0.9953384399414062 0 -0.09644350409507751
vn -0.8882078528404236 0 -0.4594418406486511
vn -0.8416807055473328 0 -0.5399755239486694
vn -0.7882772088050842 0 -0.6153202652931213
vn -0.5908046960830688 0 -0.8068146109580994
vn -0.513688325881958 0 -0.8579768538475037
vn -0.1682113260030746 0 -0.9857509732246399
vn -0.08848191052675247 0 -0.9960777759552002
vn 0 0 -1
vn 0.2694169580936432 1.53709996912164e-16 -0.9630236029624939
vn 0.6153202652931213 0 -0.7882772088050842
vn 0.6851250529289246 0 -0.7284255027770996
vn 0.7490687966346741 0 -0.6624922156333923
vn 0.8068146109580994 0 -0.5908046960830688
vn 0.8579768538475037 0 -0.513688325881958
vn 0.9814357161521912 0 0.1917912513017654
vn 0.9586212038993835 0 0.2846847176551819
vn 0.9439770579338074 0 0.3300111293792725
vn 0.9086931943893433 0 0.417464554309845
vn 0.8882078528404236 0 0.4594418406486511
vn 0.7882772088050842 0 0.6153202652931213
vn 0.7284255027770996 0 0.6851250529289246
vn 0.6624922156333923 0 0.7490687966346741
vn 0.5908046960830688 0 0.8068146109580994
vn 0.1682113260030746 0 0.9857509732246399
vn 0.08848191052675247 0 0.9960777759552002
vn 0 0 1
vn 0 1 0
vn -0.2846847176551819 0 0.9586212038993835
vn -0.3741540014743805 0 0.9273665547370911
vn -0.4594418406486511 0 0.8882078528404236
vn -0.6153202652931213 0 0.7882772088050842
vn -0.9386900067329407 0 0.3447622954845428
vn -1 0 0
vn -0.9814357161521912 0 -0.1917912513017654
vn -0.9586212038993835 0 -0.2846847176551819
vn -0.7882772088050842 0 -0.6153202652931213
vn -0.7284255027770996 0 -0.6851250529289246
vn -0.6624922156333923 0 -0.7490687966346741
vn -0.5908046960830688 0 -0.8068146109580994
vn -0.513688325881958 0 -0.8579768538475037
vn -0.1682113260030746 0 -0.9857509732246399
vn 0 1 0
vn -0.08848191052675247 0 -0.9960777759552002
vn 0 1 0
vn 0 0 -1
vn 0 1 0
vn 0.09644350409507751 0 -0.9953384399414062
vn 0 1 0
vn 0.3741540014743805 0 -0.9273665547370911
vn 0.4594418406486511 0 -0.8882078528404236
vn 0.9021053314208984 0 -0.4315158724784851
vn 0.9386900067329407 0 -0.3447622954845428
vn 0.9857509732246399 0 -0.1682113260030746
vn 0.9960777759552002 0 -0.08848191052675247
vn 0.9988360404968262 0 0.04823432490229607
vn 0.9988360404968262 0 -0.04823432490229607
vn 0.9953384399414062 0 0.09644350409507751
vn 0.9814357161521912 0 0.1917912513017654
vn 0.9586212038993835 0 0.2846847176551819
vn 0.9439770579338074 0 0.3300111293792725
vn 0.9086931943893433 -2.624362180477999e-16 0.417464554309845
vn 0.8952584266662598 -1.75127291157938e-16 0.4455473124980927
vn 0.7882772088050842 0 0.6153202652931213
vn 0.7284255027770996 0 0.6851250529289246
vn 0.6624922156333923 0 0.7490687966346741
vn 0.513688325881958 0 0.8579768538475037
vn 0.4315158724784851 0 0.9021053314208984
vn 0.3447622954845428 0 0.9386900067329407
vn 0.2540572881698608 0 0.9671891927719116
vn 0 0 1
vn -0.2846847176551819 0 0.9586212038993835
vn -0.3741540014743805 0 0.9273665547370911
vn -0.6851250529289246 0 0.7284255027770996
vn -0.7490687966346741 0 0.6624922156333923
vn -0.9386900067329407 0 0.3447622954845428
vn -0.9671891927719116 0 0.2540572881698608
vn -0.9857509732246399 0 0.1682113260030746
vn -0.9960777759552002 0 0.08848191052675247
vn -0.9814357161521912 0 -0.1917912513017654
vn -0.9586212038993835 0 -0.2846847176551819
vn -0.9273665547370911 0 -0.3741540014743805
vn -0.7284255027770996 0 -0.6851250529289246
vn -0.6624922156333923 0 -0.7490687966346741
vn -0.4315158724784851 0 -0.9021053314208984
vn -0.3447622954845428 0 -0.9386900067329407
vn -0.2540572881698608 0 -0.9671891927719116
vn 0.09644350409507751 0 -0.9953384399414062
vn 0.2074969112873077 1.537127100645732e-16 -0.97823566198349
vn 0.3741540014743805 0 -0.9273665547370911
vn 0.4594418406486511 0 -0.8882078528404236
vn 0.5399755239486694 0 -0.8416807055473328
vn 0.9021053314208984 0 -0.4315158724784851
vn 0.9386900067329407 0 -0.3447622954845428
vn 0.9671891927719116 0 -0.2540572881698608
vn 0.9857509732246399 0 -0.1682113260030746
vn 0.9960777759552002 0 -0.08848191052675247
vn 0.9988360404968262 0 0.04823432490229607
vn 0.9988360404968262 0 -0.04823432490229607
vn 0.9953384399414062 0 0.09644350409507751
vn 0.8416807055473328 0 0.5399755239486694
vn 0.513688325881958 0 0.8579768538475037
vn 0.4315158724784851 0 0.9021053314208984
vn 0.3447622954845428 0 0.9386900067329407
vn 0.2540572881698608 0 0.9671891927719116
vn -0.09644350409507751 0 0.9953384399414062
vn -0.1917912513017654 0 0.9814357161521912
vn -0.5399755239486694 0 0.8416807055473328
vn -0.6851250529289246 0 0.7284255027770996
vn -0.7490687966346741 0 0.6624922156333923
vn -0.8068146109580994 0 0.5908046960830688
vn -0.8579768538475037 0 0.513688325881958
vn -0.9021053314208984 0 0.4315158724784851
vn -0.9671891927719116 0 0.2540572881698608
vn -0.9857509732246399 0 0.1682113260030746
vn -0.9960777759552002 0 0.08848191052675247
vn -0.9953384399414062 0 -0.09644350409507751
vn -0.9273665547370911 0 -0.3741540014743805
vn -0.8882078528404236 0 -0.4594418406486511
vn -0.8416807055473328 0 -0.5399755239486694
vn -0.4315158724784851 0 -0.9021053314208984
vn -0.3447622954845428 0 -0.9386900067329407
vn -0.2540572881698608 0 -0.9671891927719116
vn 0 1 0
vn 0.1917912513017654 0 -0.9814357161521912
vn 0 1 0
vn 0.2387123554944992 0 -0.9710903167724609
vn 0.3300111293792725 0 -0.9439770579338074
vn 0.5399755239486694 0 -0.8416807055473328
vn 0.6153202652931213 0 -0.7882772088050842
vn 0.6851250529289246 0 -0.7284255027770996
vn 0.7490687966346741 0 -0.6624922156333923
vn 0.8068146109580994 0 -0.5908046960830688
vn 0.8579768538475037 0 -0.513688325881958
vn 0.9671891927719116 0 -0.2540572881698608
vn 0.2387123554944992 1.535550031177063e-16 -0.9710903167724609
vn 0 1 0
vn 0 1 0
vn 0 1 0
vn 0 1 0
vn 0 1 0
vn 0 1 0
vn 0.9086931943893433 -1.749574875217931e-16 0.4174645841121674
vn 0 1 0
vn 0 1 0
vn 0 1 0
vn 0 1 0
vn 0 1 0
vn 0 1 0
vn 0 1 0
vn 0 1 0
vn 0 1 0
vn 0 1 0
vn 0 1 0
vn 0 1 0
vn 0 1 0
vn 0 1 0
vn 0 1 0
f 228//228 270//270 272//272 230//230
f 230//230 272//272 188//188 231//231
f 231//231 188//188 189//189 232//232
f 232//232 189//189 190//190 233//233
f 234//234 191//191 315//315
f 315//315 192//192 235//235
f 315//315 235//235 234//234
f 235//235 192//192 273//273 160//160
f 160//160 273//273 193//193 236//236
f 236//236 193//193 194//194 237//237
f 237//237 194//194 195//195 238//238
f 238//238 195//195 196//196 161//161
f 161//161 196//196 274//274 239//239
f 239//239 274//274 275//275 240//240
f 240//240 275//275 276//276 241//241
f 241//241 276//276 277//277 242//242
f 242//242 277//277 197//197 162//162
f 162//162 197//197 198//198 163//163
f 163//163 198//198 199//199 243//243
f 243//243 199//199 278//278 164//164
f 164//164 278//278 279//279 165//165
f 165//165 279//279 201//201 244//244
f 244//244 201//201 202//202 245//245
f 245//245 202//202 203//203 166//166
f 166//166 203//203 280//280 167//167
f 167//167 280//280 204//204 168//168
f 168//168 204//204 281//281 246//246
f 246//246 281//281 282//282 247//247
f 247//247 282//282 283//283 169//169
f 169//169 283//283 284//284 170//170
f 170//170 284//284 285//285 171//171
f 171//171 285//285 205//205 248//248
f 248//248 205//205 286//286 249//249
f 249//249 286//286 287//287 250//250
f 250//250 287//287 288//288 251//251
f 251//251 288//288 206//206 172//172
f 172//172 206//206 289//289 173//173
f 173//173 289//289 207//207 252//252
f 252//252 207//207 208//208 253//253
f 253//253 208//208 290//290 254//254
f 254//254 290//290 291//291 174//174
f 174//174 291//291 292//292 175//175
f 175//175 292//292 209//209 176//176
f 176//176 209//209 210//210 255//255
f 255//255 210//210 211//211 256//256
f 256//256 211//211 212//212 177//177
f 177//177 212//212 213//213 178//178
f 178//178 213//213 293//293 257//257
f 257//257 293//293 294//294 258//258
f 258//258 294//294 295//295 259//259
f 259//259 295//295 214//214 179//179
f 179//179 214//214 216//216 180//180
f 180//180 216//216 218//218 181//181
f 181//181 218//218 220//220 260//260
f 260//260 220//220 297//297 261//261
f 261//261 297//297 308//308
f 308//308 299//299 182//182
f 308//308 182//182 261//261
f 182//182 300//300 222//222 262//262
f 262//262 222//222 223//223 263//263
f 263//263 223//223 301//301 264//264
f 264//264 301//301 302//302 183//183
f 183//183 302//302 303//303 184//184
f 184//184 303//303 304//304 185//185
f 185//185 304//304 305//305 186//186
f 186//186 305//305 306//306 187//187
f 187//187 306//306 224//224 265//265
f 265//265 224//224 225//225 266//266
f 266//266 225//225 307//307 267//267
f 267//267 307//307 226//226 268//268
f 268//268 226//226 227//227 269//269
f 269//269 227//227 271//271 229//229
f 200//200 326//326 323//323
f 326//326 329//329 323//323
f 329//329 318//318 322//322
f 318//318 316//316 310//310
f 316//316 309//309 298//298
f 298//298 221//221 316//316
f 221//221 219//219 316//316
f 219//219 217//217 314//314
f 296//296 314//314 217//217
f 296//296 217//217 215//215
f 314//314 310//310 316//316
f 314//314 316//316 219//219
f 310//310 322//322 318//318
f 322//322 323//323 329//329
f 324//324 321//321 325//325
f 330//330 327//327 328//328
f 320//320 317//317 319//319
f 311//311 313//313 312//312
