# WaveFront *.obj file (generated by CINEMA 4D)

mtllib ./x_hezi2.mtl

v -5.00000000000000 -2.50000000000000 -5.00000000000000
v -5.00000000000000 -0.49575194854488 -5.00000000000000
v -5.00000000000000 0.49575194854488 -5.00000000000000
v -5.00000000000000 2.50000000000000 -5.00000000000000
v 5.00000000000000 -2.50000000000000 -5.00000000000000
v 5.00000000000000 -0.49575194854488 -5.00000000000000
v 5.00000000000000 0.49575194854488 -5.00000000000000
v 5.00000000000000 2.50000000000000 -5.00000000000000
v 5.00000000000000 -2.50000000000000 5.00000000000000
v 5.00000000000000 -0.49575194854488 5.00000000000000
v 5.00000000000000 0.49575194854488 5.00000000000000
v 5.00000000000000 2.50000000000000 5.00000000000000
v -5.00000000000000 -2.50000000000000 5.00000000000000
v -5.00000000000000 -0.49575194854488 5.00000000000000
v -5.00000000000000 0.49575194854488 5.00000000000000
v -5.00000000000000 2.50000000000000 5.00000000000000
# 16 vertices

vn 0.00000000000000 0.00000000000000 -1.00000000000000
vn 1.00000000000000 0.00000000000000 0.00000000000000
vn 0.00000000000000 0.00000000000000 1.00000000000000
vn -1.00000000000000 0.00000000000000 0.00000000000000
vn 0.00000000000000 1.00000000000000 0.00000000000000
vn 0.00000000000000 -1.00000000000000 0.00000000000000
# 6 normals

vt 0.00000000000000 -1.00000000000000 0.00000000000000
vt 0.00000000000000 -0.66666662693024 0.00000000000000
vt 1.00000000000000 -0.66666662693024 0.00000000000000
vt 1.00000000000000 -1.00000000000000 0.00000000000000
vt 0.00000000000000 -0.33333331346512 0.00000000000000
vt 1.00000000000000 -0.33333331346512 0.00000000000000
vt 0.00000000000000 -0.00000000000000 0.00000000000000
vt 1.00000000000000 -0.00000000000000 0.00000000000000
# 8 texture coordinates

o x_hezi2
usemtl luse02
f 1/1/1 2/2/1 6/3/1 5/4/1
f 3/5/1 4/7/1 8/8/1 7/6/1
f 5/1/2 6/2/2 10/3/2 9/4/2
f 7/5/2 8/7/2 12/8/2 11/6/2
f 9/1/3 10/2/3 14/3/3 13/4/3
f 11/5/3 12/7/3 16/8/3 15/6/3
f 13/1/4 14/2/4 2/3/4 1/4/4
f 15/5/4 16/7/4 4/8/4 3/6/4
f 4/1/5 16/7/5 12/8/5 8/4/5
f 13/1/6 1/7/6 5/8/6 9/4/6

usemtl baise
f 2/2/1 3/5/1 7/6/1 6/3/1
f 6/2/2 7/5/2 11/6/2 10/3/2
f 10/2/3 11/5/3 15/6/3 14/3/3
f 14/2/4 15/5/4 3/6/4 2/3/4

