# WaveFront *.obj file (generated by CINEMA 4D)

mtllib ./d_hezi5.mtl

v -5.00000000000000 -2.50000000000000 -5.00000000000000
v -5.00000000000000 2.50000000000000 -5.00000000000000
v -0.49188722550814 -2.50000000000000 -5.00000000000000
v -0.49188722550814 2.50000000000000 -5.00000000000000
v 0.49188722550814 -2.50000000000000 -5.00000000000000
v 0.49188722550814 2.50000000000000 -5.00000000000000
v 5.00000000000000 -2.50000000000000 -5.00000000000000
v 5.00000000000000 2.50000000000000 -5.00000000000000
v 5.00000000000000 -2.50000000000000 -0.46291475842250
v 5.00000000000000 2.50000000000000 -0.46291475842250
v 5.00000000000000 -2.50000000000000 0.46291475842248
v 5.00000000000000 2.50000000000000 0.46291475842248
v 5.00000000000000 -2.50000000000000 5.00000000000000
v 5.00000000000000 2.50000000000000 5.00000000000000
v 0.49188722550814 -2.50000000000000 5.00000000000000
v 0.49188722550814 2.50000000000000 5.00000000000000
v -0.49188722550814 -2.50000000000000 5.00000000000000
v -0.49188722550814 2.50000000000000 5.00000000000000
v -5.00000000000000 -2.50000000000000 5.00000000000000
v -5.00000000000000 2.50000000000000 5.00000000000000
v -5.00000000000000 -2.50000000000000 0.46291475842248
v -5.00000000000000 2.50000000000000 0.46291475842248
v -5.00000000000000 -2.50000000000000 -0.46291475842250
v -5.00000000000000 2.50000000000000 -0.46291475842250
v -0.49188722550814 2.50000000000000 -0.46291475842250
v -0.49188722550814 2.50000000000000 0.46291475842248
v 0.49188722550814 2.50000000000000 -0.46291475842250
v 0.49188722550814 2.50000000000000 0.46291475842248
v -0.49188722550814 -2.50000000000000 0.46291475842248
v -0.49188722550814 -2.50000000000000 -0.46291475842250
v 0.49188722550814 -2.50000000000000 0.46291475842248
v 0.49188722550814 -2.50000000000000 -0.46291475842250
# 32 vertices

vn 0.00000000000000 0.00000000000000 -1.00000000000000
vn 1.00000000000000 0.00000000000000 0.00000000000000
vn 0.00000000000000 0.00000000000000 1.00000000000000
vn -1.00000000000000 0.00000000000000 0.00000000000000
vn 0.00000000000000 1.00000000000000 0.00000000000000
vn 0.00000000000000 -1.00000000000000 0.00000000000000
# 6 normals

vt 0.00000000000000 -1.00000000000000 0.00000000000000
vt 0.00000000000000 -0.00000000000000 0.00000000000000
vt 0.33333334326744 -0.00000000000000 0.00000000000000
vt 0.33333334326744 -1.00000000000000 0.00000000000000
vt 0.66666668653488 -0.00000000000000 0.00000000000000
vt 0.66666668653488 -1.00000000000000 0.00000000000000
vt 1.00000000000000 -0.00000000000000 0.00000000000000
vt 1.00000000000000 -1.00000000000000 0.00000000000000
vt 0.00000000000000 -0.66666662693024 0.00000000000000
vt 0.33333334326744 -0.66666662693024 0.00000000000000
vt 0.66666668653488 -0.66666662693024 0.00000000000000
vt 1.00000000000000 -0.66666662693024 0.00000000000000
vt 0.00000000000000 -0.33333331346512 0.00000000000000
vt 0.33333334326744 -0.33333331346512 0.00000000000000
vt 0.66666668653488 -0.33333331346512 0.00000000000000
vt 1.00000000000000 -0.33333331346512 0.00000000000000
# 16 texture coordinates

o d_hez5
usemtl q_baise
f 1/1/1 2/2/1 4/3/1 3/4/1
f 5/6/1 6/5/1 8/7/1 7/8/1
f 7/1/2 8/2/2 10/3/2 9/4/2
f 11/6/2 12/5/2 14/7/2 13/8/2
f 13/1/3 14/2/3 16/3/3 15/4/3
f 17/6/3 18/5/3 20/7/3 19/8/3
f 19/1/4 20/2/4 22/3/4 21/4/4
f 23/6/4 24/5/4 2/7/4 1/8/4
f 2/1/5 24/9/5 25/10/5 4/4/5
f 6/6/5 27/11/5 10/12/5 8/8/5
f 22/13/5 20/2/5 18/3/5 26/14/5
f 28/15/5 16/5/5 14/7/5 12/16/5
f 19/1/6 21/9/6 29/10/6 17/4/6
f 15/6/6 31/11/6 11/12/6 13/8/6
f 23/13/6 1/2/6 3/3/6 30/14/6
f 32/15/6 5/5/6 7/7/6 9/16/6

usemtl hongse1
f 3/4/1 4/3/1 6/5/1 5/6/1
f 9/4/2 10/3/2 12/5/2 11/6/2
f 15/4/3 16/3/3 18/5/3 17/6/3
f 21/4/4 22/3/4 24/5/4 23/6/4
f 4/4/5 25/10/5 27/11/5 6/6/5
f 24/9/5 22/13/5 26/14/5 25/10/5
f 25/10/5 26/14/5 28/15/5 27/11/5
f 27/11/5 28/15/5 12/16/5 10/12/5
f 26/14/5 18/3/5 16/5/5 28/15/5
f 17/4/6 29/10/6 31/11/6 15/6/6
f 21/9/6 23/13/6 30/14/6 29/10/6
f 29/10/6 30/14/6 32/15/6 31/11/6
f 31/11/6 32/15/6 9/16/6 11/12/6
f 30/14/6 3/3/6 5/5/6 32/15/6

