# WaveFront *.obj file (generated by CINEMA 4D)

mtllib ./d_hezi3.mtl

v -5.00000000000000 -2.50000000000000 -5.00000000000000
v -5.00000000000000 0.00000000000000 -5.00000000000000
v -5.00000000000000 2.50000000000000 -5.00000000000000
v 0.00000000000000 -2.50000000000000 -5.00000000000000
v 0.00000000000000 0.00000000000000 -5.00000000000000
v 0.00000000000000 2.50000000000000 -5.00000000000000
v 5.00000000000000 -2.50000000000000 -5.00000000000000
v 5.00000000000000 0.00000000000000 -5.00000000000000
v 5.00000000000000 2.50000000000000 -5.00000000000000
v 5.00000000000000 -2.50000000000000 0.00000000000000
v 5.00000000000000 0.00000000000000 0.00000000000000
v 5.00000000000000 2.50000000000000 0.00000000000000
v 5.00000000000000 -2.50000000000000 5.00000000000000
v 5.00000000000000 0.00000000000000 5.00000000000000
v 5.00000000000000 2.50000000000000 5.00000000000000
v 0.00000000000000 -2.50000000000000 5.00000000000000
v 0.00000000000000 0.00000000000000 5.00000000000000
v 0.00000000000000 2.50000000000000 5.00000000000000
v -5.00000000000000 -2.50000000000000 5.00000000000000
v -5.00000000000000 0.00000000000000 5.00000000000000
v -5.00000000000000 2.50000000000000 5.00000000000000
v -5.00000000000000 -2.50000000000000 0.00000000000000
v -5.00000000000000 0.00000000000000 0.00000000000000
v -5.00000000000000 2.50000000000000 0.00000000000000
v 0.00000000000000 2.50000000000000 0.00000000000000
v 0.00000000000000 -2.50000000000000 0.00000000000000
# 26 vertices

vn 0.00000000000000 0.00000000000000 -1.00000000000000
vn 1.00000000000000 0.00000000000000 0.00000000000000
vn 0.00000000000000 0.00000000000000 1.00000000000000
vn -1.00000000000000 0.00000000000000 0.00000000000000
vn 0.00000000000000 1.00000000000000 0.00000000000000
vn 0.00000000000000 -1.00000000000000 0.00000000000000
# 6 normals

vt 0.00000000000000 -1.00000000000000 0.00000000000000
vt 0.00000000000000 -0.50000000000000 0.00000000000000
vt 0.50000000000000 -0.50000000000000 0.00000000000000
vt 0.50000000000000 -1.00000000000000 0.00000000000000
vt 1.00000000000000 -0.50000000000000 0.00000000000000
vt 1.00000000000000 -1.00000000000000 0.00000000000000
vt 0.00000000000000 -0.00000000000000 0.00000000000000
vt 0.50000000000000 -0.00000000000000 0.00000000000000
vt 1.00000000000000 -0.00000000000000 0.00000000000000
# 9 texture coordinates

o x_hezi3
usemtl q_zise
f 1/1/1 2/2/1 5/3/1 4/4/1
f 2/2/1 3/7/1 6/8/1 5/3/1
f 10/4/2 11/3/2 14/5/2 13/6/2
f 11/3/2 12/8/2 15/9/2 14/5/2
f 13/1/3 14/2/3 17/3/3 16/4/3
f 14/2/3 15/7/3 18/8/3 17/3/3
f 22/4/4 23/3/4 2/5/4 1/6/4
f 23/3/4 24/8/4 3/9/4 2/5/4
f 3/1/5 24/2/5 25/3/5 6/4/5
f 25/3/5 18/8/5 15/9/5 12/5/5
f 19/1/6 22/2/6 26/3/6 16/4/6
f 16/4/6 26/3/6 10/5/6 13/6/6
f 22/2/6 1/7/6 4/8/6 26/3/6
f 26/3/6 4/8/6 7/9/6 10/5/6

usemtl baise
f 4/4/1 5/3/1 8/5/1 7/6/1
f 5/3/1 6/8/1 9/9/1 8/5/1
f 7/1/2 8/2/2 11/3/2 10/4/2
f 8/2/2 9/7/2 12/8/2 11/3/2
f 16/4/3 17/3/3 20/5/3 19/6/3
f 17/3/3 18/8/3 21/9/3 20/5/3
f 19/1/4 20/2/4 23/3/4 22/4/4
f 20/2/4 21/7/4 24/8/4 23/3/4
f 6/4/5 25/3/5 12/5/5 9/6/5
f 24/2/5 21/7/5 18/8/5 25/3/5

